 <svg  width="90" height="90" viewBox="0 0 90 90" fill="none" xmlns="http://www.w3.org/2000/svg">
  <path d="M0.75 10.5833V79.4167C0.75 84.825 5.12583 89.25 10.5833 89.25H79.4167C84.825 89.25 89.25 84.825 89.25 79.4167V10.5833C89.25 5.175 84.825 0.75 79.4167 0.75H10.5833C5.12583 0.75 0.75 5.175 0.75 10.5833ZM59.75 30.25C59.75 38.4117 53.1617 45 45 45C36.8383 45 30.25 38.4117 30.25 30.25C30.25 22.0883 36.8383 15.5 45 15.5C53.1617 15.5 59.75 22.0883 59.75 30.25ZM15.5 69.5833C15.5 59.75 35.1667 54.3417 45 54.3417C54.8333 54.3417 74.5 59.75 74.5 69.5833V74.5H15.5V69.5833Z" fill="#A3A3A3"/>
 </svg>